# Blender v3.6.5 OBJ File: ''
# www.blender.org
o Sphere_Sphere.001
v 0.000000 0.382683 0.923880
v 0.000000 0.000000 1.000000
v 0.000000 -0.382683 0.923880
v 0.000000 -0.923880 0.382683
v -0.146447 0.923880 0.353553
v -0.270598 0.707107 0.653281
v -0.353553 0.382683 0.853553
v -0.382683 0.000000 0.923880
v -0.353553 -0.382683 0.853553
v -0.270598 -0.707107 0.653281
v -0.146447 -0.923880 0.353553
v -0.270598 0.923880 0.270598
v -0.500000 0.707107 0.500000
v -0.653282 0.382683 0.653281
v -0.707107 0.000000 0.707107
v -0.653282 -0.382683 0.653281
v -0.500000 -0.707107 0.500000
v -0.270598 -0.923880 0.270598
v -0.353553 0.923880 0.146447
v -0.653281 0.707107 0.270598
v -0.853553 0.382683 0.353553
v -0.923880 0.000000 0.382683
v -0.853553 -0.382683 0.353553
v -0.653281 -0.707107 0.270598
v -0.353553 -0.923880 0.146447
v -0.382683 0.923880 -0.000000
v -0.707107 0.707107 -0.000000
v -0.923880 0.382683 -0.000000
v -1.000000 0.000000 -0.000000
v -0.923880 -0.382683 -0.000000
v -0.707107 -0.707107 -0.000000
v -0.382683 -0.923880 -0.000000
v -0.353553 0.923880 -0.146447
v -0.653281 0.707107 -0.270598
v -0.853553 0.382683 -0.353554
v -0.923879 0.000000 -0.382684
v -0.853553 -0.382683 -0.353554
v -0.653281 -0.707107 -0.270598
v -0.353553 -0.923880 -0.146447
v -0.270598 0.923880 -0.270598
v -0.500000 0.707107 -0.500000
v -0.653281 0.382683 -0.653282
v -0.707107 0.000000 -0.707107
v -0.653281 -0.382683 -0.653282
v -0.500000 -0.707107 -0.500000
v -0.270598 -0.923880 -0.270598
v -0.146447 0.923880 -0.353553
v -0.270598 0.707107 -0.653281
v -0.353553 0.382683 -0.853553
v -0.382683 0.000000 -0.923880
v -0.353553 -0.382683 -0.853553
v -0.270598 -0.707107 -0.653281
v -0.146447 -0.923880 -0.353553
v 0.000000 0.923880 -0.382683
v 0.000000 0.707107 -0.707107
v 0.000000 0.382683 -0.923879
v 0.000000 0.000000 -1.000000
v 0.000000 -0.382683 -0.923879
v 0.000000 -0.707107 -0.707107
v 0.000000 -0.923880 -0.382683
v 0.000000 -1.000000 0.000000
v 0.000000 1.000000 0.000000
v 0.146447 0.923880 -0.353553
v 0.270598 0.707107 -0.653281
v 0.353554 0.382683 -0.853553
v 0.382684 0.000000 -0.923879
v 0.353554 -0.382683 -0.853553
v 0.270598 -0.707107 -0.653281
v 0.146447 -0.923880 -0.353553
v 0.270598 0.923880 -0.270598
v 0.500000 0.707107 -0.500000
v 0.653282 0.382683 -0.653281
v 0.707107 0.000000 -0.707106
v 0.653282 -0.382683 -0.653281
v 0.500000 -0.707107 -0.500000
v 0.270598 -0.923880 -0.270598
v 0.353553 0.923880 -0.146446
v 0.653281 0.707107 -0.270598
v 0.853553 0.382683 -0.353553
v 0.923880 0.000000 -0.382683
v 0.853553 -0.382683 -0.353553
v 0.653281 -0.707107 -0.270598
v 0.353553 -0.923880 -0.146446
v 0.382683 0.923880 0.000000
v 0.707107 0.707107 0.000000
v 0.923879 0.382683 0.000000
v 1.000000 0.000000 0.000001
v 0.923879 -0.382683 0.000000
v 0.707107 -0.707107 0.000000
v 0.382683 -0.923880 0.000000
v 0.353553 0.923880 0.146447
v 0.653281 0.707107 0.270598
v 0.853553 0.382683 0.353554
v 0.923879 0.000000 0.382684
v 0.853553 -0.382683 0.353554
v 0.653281 -0.707107 0.270598
v 0.353553 -0.923880 0.146447
v 0.270598 0.923880 0.270598
v 0.500000 0.707107 0.500000
v 0.653281 0.382683 0.653282
v 0.707106 0.000000 0.707107
v 0.653281 -0.382683 0.653282
v 0.500000 -0.707107 0.500000
v 0.270598 -0.923880 0.270598
v 0.146446 0.923880 0.353554
v 0.270598 0.707107 0.653281
v 0.353553 0.382683 0.853553
v 0.382683 0.000000 0.923880
v 0.353553 -0.382683 0.853553
v 0.270598 -0.707107 0.653281
v 0.146446 -0.923880 0.353554
v -0.000000 0.923880 0.382683
v -0.000000 0.707107 0.707107
v -0.000000 -0.707107 0.707107
vt 0.750000 0.250000
vt 0.687500 0.125000
vt 0.750000 0.125000
vt 0.750000 0.500000
vt 0.687500 0.375000
vt 0.750000 0.375000
vt 0.750000 0.750000
vt 0.687500 0.625000
vt 0.750000 0.625000
vt 0.750000 0.875000
vt 0.718750 1.000000
vt 0.687500 0.875000
vt 0.718750 0.000000
vt 0.687500 0.250000
vt 0.687500 0.500000
vt 0.687500 0.750000
vt 0.625000 0.625000
vt 0.656250 1.000000
vt 0.625000 0.875000
vt 0.656250 0.000000
vt 0.625000 0.125000
vt 0.625000 0.250000
vt 0.625000 0.500000
vt 0.625000 0.750000
vt 0.625000 0.375000
vt 0.593750 0.000000
vt 0.562500 0.125000
vt 0.562500 0.375000
vt 0.562500 0.250000
vt 0.562500 0.625000
vt 0.562500 0.500000
vt 0.562500 0.750000
vt 0.593750 1.000000
vt 0.562500 0.875000
vt 0.500000 0.750000
vt 0.500000 0.125000
vt 0.500000 0.500000
vt 0.500000 0.375000
vt 0.500000 0.625000
vt 0.531250 1.000000
vt 0.500000 0.875000
vt 0.531250 0.000000
vt 0.500000 0.250000
vt 0.437500 0.250000
vt 0.437500 0.125000
vt 0.437500 0.375000
vt 0.437500 0.625000
vt 0.468750 1.000000
vt 0.437500 0.875000
vt 0.468750 0.000000
vt 0.437500 0.500000
vt 0.437500 0.750000
vt 0.406250 1.000000
vt 0.375000 0.875000
vt 0.406250 0.000000
vt 0.375000 0.125000
vt 0.375000 0.250000
vt 0.375000 0.625000
vt 0.375000 0.500000
vt 0.375000 0.750000
vt 0.375000 0.375000
vt 0.312500 0.375000
vt 0.312500 0.250000
vt 0.312500 0.500000
vt 0.312500 0.750000
vt 0.312500 0.125000
vt 0.312500 0.625000
vt 0.343750 1.000000
vt 0.312500 0.875000
vt 0.343750 0.000000
vt 0.250000 0.250000
vt 0.250000 0.125000
vt 0.250000 0.375000
vt 0.250000 0.625000
vt 0.281250 1.000000
vt 0.250000 0.875000
vt 0.281250 0.000000
vt 0.250000 0.500000
vt 0.250000 0.750000
vt 0.187500 0.375000
vt 0.187500 0.625000
vt 0.218750 1.000000
vt 0.187500 0.875000
vt 0.218750 0.000000
vt 0.187500 0.125000
vt 0.187500 0.250000
vt 0.187500 0.500000
vt 0.187500 0.750000
vt 0.156250 0.000000
vt 0.125000 0.125000
vt 0.125000 0.375000
vt 0.125000 0.250000
vt 0.125000 0.625000
vt 0.125000 0.500000
vt 0.125000 0.750000
vt 0.156250 1.000000
vt 0.125000 0.875000
vt 0.062500 0.625000
vt 0.062500 0.500000
vt 0.062500 0.750000
vt 0.062500 0.125000
vt 0.062500 0.375000
vt 0.093750 1.000000
vt 0.062500 0.875000
vt 0.093750 0.000000
vt 0.062500 0.250000
vt 0.000000 0.125000
vt 0.000000 0.375000
vt 0.000000 0.625000
vt 0.031250 1.000000
vt 0.000000 0.875000
vt 0.031250 0.000000
vt 0.000000 0.250000
vt 0.000000 0.500000
vt 0.000000 0.750000
vt 1.000000 0.750000
vt 0.937500 0.625000
vt 1.000000 0.625000
vt 1.000000 0.875000
vt 0.968750 1.000000
vt 0.937500 0.875000
vt 0.968750 0.000000
vt 1.000000 0.125000
vt 0.937500 0.125000
vt 1.000000 0.375000
vt 0.937500 0.250000
vt 1.000000 0.250000
vt 1.000000 0.500000
vt 0.937500 0.500000
vt 0.937500 0.750000
vt 0.937500 0.375000
vt 0.906250 0.000000
vt 0.875000 0.125000
vt 0.875000 0.375000
vt 0.875000 0.250000
vt 0.875000 0.625000
vt 0.875000 0.500000
vt 0.875000 0.750000
vt 0.906250 1.000000
vt 0.875000 0.875000
vt 0.812500 0.750000
vt 0.812500 0.125000
vt 0.812500 0.375000
vt 0.812500 0.625000
vt 0.843750 1.000000
vt 0.812500 0.875000
vt 0.843750 0.000000
vt 0.812500 0.250000
vt 0.812500 0.500000
vt 0.781250 1.000000
vt 0.781250 0.000000
vn -0.1098 -0.8264 0.5522
vn -0.1915 -0.1915 0.9626
vn -0.1632 0.5481 0.8203
vn -0.0388 0.9800 0.1949
vn -0.0388 -0.9800 0.1949
vn -0.1632 -0.5481 0.8203
vn -0.1915 0.1915 0.9626
vn -0.1098 0.8264 0.5522
vn -0.4647 0.5481 0.6954
vn -0.1104 0.9800 0.1653
vn -0.1104 -0.9800 0.1653
vn -0.4647 -0.5481 0.6954
vn -0.5453 0.1915 0.8161
vn -0.3128 0.8264 0.4681
vn -0.3128 -0.8264 0.4681
vn -0.5453 -0.1915 0.8161
vn -0.1653 -0.9800 0.1104
vn -0.6954 -0.5481 0.4647
vn -0.8161 0.1915 0.5453
vn -0.4681 0.8264 0.3128
vn -0.4681 -0.8264 0.3128
vn -0.8161 -0.1915 0.5453
vn -0.6954 0.5481 0.4647
vn -0.1653 0.9800 0.1104
vn -0.5522 0.8264 0.1098
vn -0.5522 -0.8264 0.1098
vn -0.9626 -0.1915 0.1915
vn -0.8203 0.5481 0.1632
vn -0.1949 0.9800 0.0388
vn -0.1949 -0.9800 0.0388
vn -0.8203 -0.5481 0.1632
vn -0.9626 0.1915 0.1915
vn -0.5522 -0.8264 -0.1098
vn -0.9626 -0.1915 -0.1915
vn -0.8203 0.5481 -0.1632
vn -0.1949 0.9800 -0.0388
vn -0.1949 -0.9800 -0.0388
vn -0.8203 -0.5481 -0.1632
vn -0.9626 0.1915 -0.1915
vn -0.5522 0.8264 -0.1098
vn -0.1653 0.9800 -0.1104
vn -0.1653 -0.9800 -0.1104
vn -0.6954 -0.5481 -0.4647
vn -0.8161 0.1915 -0.5453
vn -0.4681 0.8264 -0.3128
vn -0.4681 -0.8264 -0.3128
vn -0.8161 -0.1915 -0.5453
vn -0.6954 0.5481 -0.4647
vn -0.4647 -0.5481 -0.6954
vn -0.5453 0.1915 -0.8161
vn -0.3128 0.8264 -0.4681
vn -0.3128 -0.8264 -0.4681
vn -0.5453 -0.1915 -0.8161
vn -0.4647 0.5481 -0.6954
vn -0.1104 0.9800 -0.1653
vn -0.1104 -0.9800 -0.1653
vn -0.1098 -0.8264 -0.5522
vn -0.1915 -0.1915 -0.9626
vn -0.1632 0.5481 -0.8203
vn -0.0388 0.9800 -0.1949
vn -0.0388 -0.9800 -0.1949
vn -0.1632 -0.5481 -0.8203
vn -0.1915 0.1915 -0.9626
vn -0.1098 0.8264 -0.5522
vn 0.1915 -0.1915 -0.9626
vn 0.1632 0.5481 -0.8203
vn 0.0388 0.9800 -0.1949
vn 0.0388 -0.9800 -0.1949
vn 0.1632 -0.5481 -0.8203
vn 0.1915 0.1915 -0.9626
vn 0.1098 0.8264 -0.5522
vn 0.1098 -0.8264 -0.5522
vn 0.1104 -0.9800 -0.1653
vn 0.4647 -0.5481 -0.6954
vn 0.5453 0.1915 -0.8161
vn 0.3128 0.8264 -0.4681
vn 0.3128 -0.8264 -0.4681
vn 0.5453 -0.1915 -0.8161
vn 0.4647 0.5481 -0.6954
vn 0.1104 0.9800 -0.1653
vn 0.8161 0.1915 -0.5453
vn 0.4681 0.8264 -0.3128
vn 0.4681 -0.8264 -0.3128
vn 0.8161 -0.1915 -0.5453
vn 0.6954 0.5481 -0.4647
vn 0.1653 0.9800 -0.1104
vn 0.1653 -0.9800 -0.1104
vn 0.6954 -0.5481 -0.4647
vn 0.5522 -0.8264 -0.1098
vn 0.9626 -0.1915 -0.1915
vn 0.8203 0.5481 -0.1632
vn 0.1949 0.9800 -0.0388
vn 0.1949 -0.9800 -0.0388
vn 0.8203 -0.5481 -0.1632
vn 0.9626 0.1915 -0.1915
vn 0.5522 0.8264 -0.1098
vn 0.8203 0.5481 0.1632
vn 0.1949 0.9800 0.0388
vn 0.1949 -0.9800 0.0388
vn 0.8203 -0.5481 0.1632
vn 0.9626 0.1915 0.1915
vn 0.5522 0.8264 0.1098
vn 0.5522 -0.8264 0.1098
vn 0.9626 -0.1915 0.1915
vn 0.1653 -0.9800 0.1104
vn 0.6954 -0.5481 0.4647
vn 0.8161 0.1915 0.5453
vn 0.4681 0.8264 0.3128
vn 0.4681 -0.8264 0.3128
vn 0.8161 -0.1915 0.5453
vn 0.6954 0.5481 0.4647
vn 0.1653 0.9800 0.1104
vn 0.3128 0.8264 0.4681
vn 0.3128 -0.8264 0.4681
vn 0.5453 -0.1915 0.8161
vn 0.4647 0.5481 0.6954
vn 0.1104 0.9800 0.1653
vn 0.1104 -0.9800 0.1653
vn 0.4647 -0.5481 0.6954
vn 0.5453 0.1915 0.8161
vn 0.1098 -0.8264 0.5522
vn 0.1915 -0.1915 0.9626
vn 0.1632 0.5481 0.8203
vn 0.0388 0.9800 0.1949
vn 0.0388 -0.9800 0.1949
vn 0.1632 -0.5481 0.8203
vn 0.1915 0.1915 0.9626
vn 0.1098 0.8264 0.5522
s off
f 114/1/1 11/2/1 4/3/1
f 2/4/2 9/5/2 3/6/2
f 113/7/3 7/8/3 1/9/3
f 112/10/4 62/11/4 5/12/4
f 61/13/5 4/3/5 11/2/5
f 114/1/6 9/5/6 10/14/6
f 1/9/7 8/15/7 2/4/7
f 113/7/8 5/12/8 6/16/8
f 6/16/9 14/17/9 7/8/9
f 5/12/10 62/18/10 12/19/10
f 61/20/11 11/2/11 18/21/11
f 9/5/12 17/22/12 10/14/12
f 7/8/13 15/23/13 8/15/13
f 5/12/14 13/24/14 6/16/14
f 10/14/15 18/21/15 11/2/15
f 9/5/16 15/23/16 16/25/16
f 61/26/17 18/21/17 25/27/17
f 17/22/18 23/28/18 24/29/18
f 15/23/19 21/30/19 22/31/19
f 12/19/20 20/32/20 13/24/20
f 17/22/21 25/27/21 18/21/21
f 15/23/22 23/28/22 16/25/22
f 13/24/23 21/30/23 14/17/23
f 12/19/24 62/33/24 19/34/24
f 19/34/25 27/35/25 20/32/25
f 24/29/26 32/36/26 25/27/26
f 23/28/27 29/37/27 30/38/27
f 21/30/28 27/35/28 28/39/28
f 19/34/29 62/40/29 26/41/29
f 61/42/30 25/27/30 32/36/30
f 23/28/31 31/43/31 24/29/31
f 21/30/32 29/37/32 22/31/32
f 32/36/33 38/44/33 39/45/33
f 29/37/34 37/46/34 30/38/34
f 27/35/35 35/47/35 28/39/35
f 26/41/36 62/48/36 33/49/36
f 61/50/37 32/36/37 39/45/37
f 30/38/38 38/44/38 31/43/38
f 28/39/39 36/51/39 29/37/39
f 27/35/40 33/49/40 34/52/40
f 33/49/41 62/53/41 40/54/41
f 61/55/42 39/45/42 46/56/42
f 37/46/43 45/57/43 38/44/43
f 36/51/44 42/58/44 43/59/44
f 34/52/45 40/54/45 41/60/45
f 39/45/46 45/57/46 46/56/46
f 36/51/47 44/61/47 37/46/47
f 34/52/48 42/58/48 35/47/48
f 45/57/49 51/62/49 52/63/49
f 42/58/50 50/64/50 43/59/50
f 40/54/51 48/65/51 41/60/51
f 45/57/52 53/66/52 46/56/52
f 44/61/53 50/64/53 51/62/53
f 41/60/54 49/67/54 42/58/54
f 40/54/55 62/68/55 47/69/55
f 61/70/56 46/56/56 53/66/56
f 53/66/57 59/71/57 60/72/57
f 50/64/58 58/73/58 51/62/58
f 48/65/59 56/74/59 49/67/59
f 47/69/60 62/75/60 54/76/60
f 61/77/61 53/66/61 60/72/61
f 51/62/62 59/71/62 52/63/62
f 50/64/63 56/74/63 57/78/63
f 47/69/64 55/79/64 48/65/64
f 57/78/65 67/80/65 58/73/65
f 55/79/66 65/81/66 56/74/66
f 54/76/67 62/82/67 63/83/67
f 61/84/68 60/72/68 69/85/68
f 59/71/69 67/80/69 68/86/69
f 56/74/70 66/87/70 57/78/70
f 54/76/71 64/88/71 55/79/71
f 59/71/72 69/85/72 60/72/72
f 61/89/73 69/85/73 76/90/73
f 68/86/74 74/91/74 75/92/74
f 66/87/75 72/93/75 73/94/75
f 63/83/76 71/95/76 64/88/76
f 69/85/77 75/92/77 76/90/77
f 66/87/78 74/91/78 67/80/78
f 64/88/79 72/93/79 65/81/79
f 63/83/80 62/96/80 70/97/80
f 73/94/81 79/98/81 80/99/81
f 70/97/82 78/100/82 71/95/82
f 75/92/83 83/101/83 76/90/83
f 73/94/84 81/102/84 74/91/84
f 71/95/85 79/98/85 72/93/85
f 70/97/86 62/103/86 77/104/86
f 61/105/87 76/90/87 83/101/87
f 75/92/88 81/102/88 82/106/88
f 82/106/89 90/107/89 83/101/89
f 80/99/90 88/108/90 81/102/90
f 78/100/91 86/109/91 79/98/91
f 77/104/92 62/110/92 84/111/92
f 61/112/93 83/101/93 90/107/93
f 82/106/94 88/108/94 89/113/94
f 80/99/95 86/109/95 87/114/95
f 78/100/96 84/111/96 85/115/96
f 85/116/97 93/117/97 86/118/97
f 84/119/98 62/120/98 91/121/98
f 61/122/99 90/123/99 97/124/99
f 88/125/100 96/126/100 89/127/100
f 87/128/101 93/117/101 94/129/101
f 84/119/102 92/130/102 85/116/102
f 89/127/103 97/124/103 90/123/103
f 87/128/104 95/131/104 88/125/104
f 61/132/105 97/124/105 104/133/105
f 96/126/106 102/134/106 103/135/106
f 94/129/107 100/136/107 101/137/107
f 91/121/108 99/138/108 92/130/108
f 96/126/109 104/133/109 97/124/109
f 94/129/110 102/134/110 95/131/110
f 92/130/111 100/136/111 93/117/111
f 91/121/112 62/139/112 98/140/112
f 98/140/113 106/141/113 99/138/113
f 103/135/114 111/142/114 104/133/114
f 101/137/115 109/143/115 102/134/115
f 99/138/116 107/144/116 100/136/116
f 98/140/117 62/145/117 105/146/117
f 61/147/118 104/133/118 111/142/118
f 103/135/119 109/143/119 110/148/119
f 101/137/120 107/144/120 108/149/120
f 110/148/121 4/3/121 111/142/121
f 108/149/122 3/6/122 109/143/122
f 106/141/123 1/9/123 107/144/123
f 105/146/124 62/150/124 112/10/124
f 61/151/125 111/142/125 4/3/125
f 110/148/126 3/6/126 114/1/126
f 107/144/127 2/4/127 108/149/127
f 106/141/128 112/10/128 113/7/128
f 114/1/1 10/14/1 11/2/1
f 2/4/2 8/15/2 9/5/2
f 113/7/3 6/16/3 7/8/3
f 114/1/6 3/6/6 9/5/6
f 1/9/7 7/8/7 8/15/7
f 113/7/8 112/10/8 5/12/8
f 6/16/9 13/24/9 14/17/9
f 9/5/12 16/25/12 17/22/12
f 7/8/13 14/17/13 15/23/13
f 5/12/14 12/19/14 13/24/14
f 10/14/15 17/22/15 18/21/15
f 9/5/16 8/15/16 15/23/16
f 17/22/18 16/25/18 23/28/18
f 15/23/19 14/17/19 21/30/19
f 12/19/20 19/34/20 20/32/20
f 17/22/21 24/29/21 25/27/21
f 15/23/22 22/31/22 23/28/22
f 13/24/23 20/32/23 21/30/23
f 19/34/25 26/41/25 27/35/25
f 24/29/26 31/43/26 32/36/26
f 23/28/27 22/31/27 29/37/27
f 21/30/28 20/32/28 27/35/28
f 23/28/31 30/38/31 31/43/31
f 21/30/32 28/39/32 29/37/32
f 32/36/33 31/43/33 38/44/33
f 29/37/34 36/51/34 37/46/34
f 27/35/35 34/52/35 35/47/35
f 30/38/38 37/46/38 38/44/38
f 28/39/39 35/47/39 36/51/39
f 27/35/40 26/41/40 33/49/40
f 37/46/43 44/61/43 45/57/43
f 36/51/44 35/47/44 42/58/44
f 34/52/45 33/49/45 40/54/45
f 39/45/46 38/44/46 45/57/46
f 36/51/47 43/59/47 44/61/47
f 34/52/48 41/60/48 42/58/48
f 45/57/49 44/61/49 51/62/49
f 42/58/50 49/67/50 50/64/50
f 40/54/51 47/69/51 48/65/51
f 45/57/52 52/63/52 53/66/52
f 44/61/53 43/59/53 50/64/53
f 41/60/54 48/65/54 49/67/54
f 53/66/57 52/63/57 59/71/57
f 50/64/58 57/78/58 58/73/58
f 48/65/59 55/79/59 56/74/59
f 51/62/62 58/73/62 59/71/62
f 50/64/63 49/67/63 56/74/63
f 47/69/64 54/76/64 55/79/64
f 57/78/65 66/87/65 67/80/65
f 55/79/66 64/88/66 65/81/66
f 59/71/69 58/73/69 67/80/69
f 56/74/70 65/81/70 66/87/70
f 54/76/71 63/83/71 64/88/71
f 59/71/72 68/86/72 69/85/72
f 68/86/74 67/80/74 74/91/74
f 66/87/75 65/81/75 72/93/75
f 63/83/76 70/97/76 71/95/76
f 69/85/77 68/86/77 75/92/77
f 66/87/78 73/94/78 74/91/78
f 64/88/79 71/95/79 72/93/79
f 73/94/81 72/93/81 79/98/81
f 70/97/82 77/104/82 78/100/82
f 75/92/83 82/106/83 83/101/83
f 73/94/84 80/99/84 81/102/84
f 71/95/85 78/100/85 79/98/85
f 75/92/88 74/91/88 81/102/88
f 82/106/89 89/113/89 90/107/89
f 80/99/90 87/114/90 88/108/90
f 78/100/91 85/115/91 86/109/91
f 82/106/94 81/102/94 88/108/94
f 80/99/95 79/98/95 86/109/95
f 78/100/96 77/104/96 84/111/96
f 85/116/97 92/130/97 93/117/97
f 88/125/100 95/131/100 96/126/100
f 87/128/101 86/118/101 93/117/101
f 84/119/102 91/121/102 92/130/102
f 89/127/103 96/126/103 97/124/103
f 87/128/104 94/129/104 95/131/104
f 96/126/106 95/131/106 102/134/106
f 94/129/107 93/117/107 100/136/107
f 91/121/108 98/140/108 99/138/108
f 96/126/109 103/135/109 104/133/109
f 94/129/110 101/137/110 102/134/110
f 92/130/111 99/138/111 100/136/111
f 98/140/113 105/146/113 106/141/113
f 103/135/114 110/148/114 111/142/114
f 101/137/115 108/149/115 109/143/115
f 99/138/116 106/141/116 107/144/116
f 103/135/119 102/134/119 109/143/119
f 101/137/120 100/136/120 107/144/120
f 110/148/121 114/1/121 4/3/121
f 108/149/122 2/4/122 3/6/122
f 106/141/123 113/7/123 1/9/123
f 110/148/126 109/143/126 3/6/126
f 107/144/127 1/9/127 2/4/127
f 106/141/128 105/146/128 112/10/128
